<?xml version="1.0" encoding="utf-8"?>
<!-- Generator: Adobe Illustrator 21.1.0, SVG Export Plug-In . SVG Version: 6.00 Build 0)  -->
<svg version="1.1" id="Layer_1" xmlns="http://www.w3.org/2000/svg" xmlns:xlink="http://www.w3.org/1999/xlink" x="0px" y="0px"
	 viewBox="0 0 39 37.3" style="enable-background:new 0 0 39 37.3;" xml:space="preserve">
<style type="text/css">
	.st0{fill:#FF40FF;}
</style>
<path class="st0" d="M36.6,32c0,0-0.1-0.1-0.1-0.1L22.9,18.5L36.5,5.2C36.6,5,36.7,5,36.8,4.9C37,4.5,37.2,4,37.2,3.6
	c0-0.2,0-0.4-0.1-0.6c-0.2-0.7-0.7-1.3-1.3-1.6c-0.2-0.1-0.5-0.2-0.8-0.2c-0.3,0-0.5,0-0.8,0.1c-0.3,0.1-0.5,0.2-0.7,0.3
	c-0.1,0.1-0.2,0.1-0.3,0.2L19.6,15.3L5.9,1.9C5.7,1.8,5.7,1.7,5.6,1.6C5.4,1.5,5.1,1.4,4.9,1.3C4.6,1.2,4.4,1.2,4.1,1.2
	c-0.3,0-0.5,0.1-0.8,0.2C2.7,1.7,2.2,2.3,2,3C2,3.2,2,3.4,2,3.6C2,4,2.1,4.5,2.4,4.9C2.5,5,2.5,5,2.7,5.2l13.6,13.4L2.7,31.9
	c0,0-0.1,0.1-0.1,0.1c-0.1,0.1-0.1,0.2-0.2,0.3c-0.2,0.4-0.3,0.9-0.3,1.3c0,0.9,0.6,1.6,1.4,2c0.2,0.1,0.5,0.2,0.8,0.2
	s0.5,0,0.8-0.1c0.3-0.1,0.5-0.2,0.7-0.3c0.1-0.1,0.2-0.1,0.3-0.2l13.7-13.4l13.7,13.4c0.1,0.1,0.2,0.2,0.3,0.2
	c0.2,0.1,0.5,0.3,0.7,0.3c0.3,0.1,0.5,0.1,0.8,0.1c0.3,0,0.5-0.1,0.8-0.2c0.8-0.3,1.3-1.1,1.4-2c0-0.5-0.1-0.9-0.3-1.3
	C36.8,32.2,36.8,32.2,36.6,32z"/>
</svg>
