<?xml version="1.0" encoding="utf-8"?>
<!-- Generator: Adobe Illustrator 21.1.0, SVG Export Plug-In . SVG Version: 6.00 Build 0)  -->
<svg version="1.1" id="Layer_1" xmlns="http://www.w3.org/2000/svg" xmlns:xlink="http://www.w3.org/1999/xlink" x="0px" y="0px"
	 viewBox="0 0 49 35.7" style="enable-background:new 0 0 49 35.7;" xml:space="preserve">
<style type="text/css">
	.st0{fill:none;}
	.st1{fill:#1A4CFF;}
	.st2{fill:#FF40FF;}
	.st3{fill:#FF2600;}
</style>
<rect x="1" y="1" class="st0" width="64" height="64"/>
<path class="st1" d="M46.4,1.3c0.2,0,0.2,0,0.4,0.1c0.4,0.1,0.8,0.4,1.1,0.7c0.2,0.2,0.3,0.4,0.4,0.7c0.1,0.2,0.2,0.5,0.2,0.8
	c0,0.9-0.4,1.7-1.2,2.1c-0.2,0.1-0.5,0.2-0.7,0.3c-0.2,0-0.2,0-0.4,0H3.3c-0.2,0-0.2,0-0.4,0C2.5,5.8,2,5.6,1.7,5.3
	C1.5,5.1,1.4,4.9,1.2,4.6C1.1,4.4,1.1,4.2,1,3.9C0.9,3.2,1.2,2.5,1.7,2C1.8,1.8,2,1.7,2.2,1.6c0.2-0.1,0.5-0.2,0.7-0.3
	c0.2,0,0.2,0,0.4,0h42.9C46.3,1.3,46.3,1.3,46.4,1.3z"/>
<path class="st2" d="M46.4,15.1c0.2,0,0.2,0,0.4,0.1c0.4,0.1,0.8,0.4,1.1,0.7c0.2,0.2,0.3,0.4,0.4,0.7c0.3,0.8,0.2,1.7-0.4,2.4
	c-0.2,0.2-0.4,0.4-0.6,0.5c-0.2,0.1-0.5,0.2-0.7,0.3c-0.2,0-0.2,0-0.4,0H3.3c-0.2,0-0.2,0-0.4,0c-0.3,0-0.5-0.1-0.7-0.3
	c-0.6-0.4-1.1-1-1.2-1.7c0-0.2,0-0.4,0-0.6c0-0.3,0.1-0.5,0.2-0.7c0.1-0.2,0.3-0.4,0.5-0.6c0.3-0.3,0.8-0.5,1.2-0.6
	c0.2,0,0.2,0,0.4,0h42.9C46.3,15.1,46.3,15.1,46.4,15.1z"/>
<path class="st3" d="M46.4,28.9c0.2,0,0.2,0,0.4,0.1c0.4,0.1,0.8,0.4,1.1,0.7c0.6,0.6,0.7,1.6,0.4,2.4c-0.1,0.2-0.2,0.5-0.4,0.7
	c-0.2,0.2-0.4,0.4-0.6,0.5c-0.2,0.1-0.5,0.2-0.7,0.3c-0.2,0-0.2,0-0.4,0H3.3c-0.2,0-0.2,0-0.4,0c-0.5-0.1-0.9-0.3-1.2-0.6
	c-0.1-0.1-0.3-0.3-0.4-0.5C1,31.8,0.9,31,1.2,30.3c0.1-0.2,0.2-0.5,0.4-0.7c0.2-0.2,0.4-0.4,0.6-0.5c0.2-0.1,0.5-0.2,0.7-0.3
	c0.2,0,0.2,0,0.4,0h42.9C46.3,28.9,46.3,28.9,46.4,28.9z"/>
</svg>
